<?xml version="1.0" standalone="no"?>
<!DOCTYPE svg PUBLIC "-//W3C//DTD SVG 20010904//EN"
        "http://www.w3.org/TR/2001/REC-SVG-20010904/DTD/svg10.dtd">
<svg version="1.0" xmlns="http://www.w3.org/2000/svg"
     width="587.000000pt" height="604.000000pt" viewBox="0 0 587.000000 604.000000"
     preserveAspectRatio="xMidYMid meet">

    <g transform="translate(0.000000,604.000000) scale(0.100000,-0.100000)"
       fill="#fff" stroke="none">
        <path d="M2480 5964 c-635 -72 -1186 -335 -1620 -773 -470 -474 -737 -1069
-780 -1739 -13 -192 -12 -688 0 -872 46 -670 315 -1265 785 -1735 406 -407
894 -654 1480 -752 96 -16 172 -18 600 -18 424 0 505 2 602 18 570 92 1072
346 1474 747 222 221 378 438 514 715 98 199 141 312 189 496 75 284 96 497
96 969 0 451 -21 678 -86 935 -242 959 -1012 1721 -1969 1948 -239 57 -274 60
-780 62 -258 2 -486 1 -505 -1z m953 -99 c598 -70 1122 -326 1543 -754 202
-205 349 -412 479 -676 115 -233 179 -422 224 -655 41 -219 46 -298 46 -770 0
-489 -6 -568 -60 -814 -86 -399 -274 -785 -533 -1096 -88 -106 -270 -287 -375
-371 -388 -313 -830 -497 -1333 -555 -186 -22 -896 -15 -1054 10 -474 73 -920
276 -1280 581 -273 232 -493 514 -650 830 -168 340 -244 629 -271 1020 -16
230 -6 827 16 995 59 455 225 866 503 1240 98 132 352 391 483 492 370 286
808 466 1273 522 163 20 821 21 989 1z"/>
        <path d="M2790 5480 l0 -230 148 0 c204 1 252 23 252 119 0 54 -16 86 -54 106
l-32 17 33 33 c37 37 43 77 17 126 -25 48 -65 59 -224 59 l-140 0 0 -230z
m244 137 c22 -16 25 -65 5 -78 -8 -5 -42 -9 -76 -9 l-63 0 0 50 0 50 58 0 c33
0 66 -6 76 -13z m24 -189 c17 -17 15 -58 -5 -80 -13 -14 -31 -18 -85 -18 l-68
0 0 55 0 55 73 0 c43 0 78 -5 85 -12z"/>
        <path d="M2362 5685 c-107 -25 -160 -100 -161 -226 -1 -54 4 -77 30 -128 18
-35 46 -73 67 -89 33 -25 43 -27 126 -27 102 0 152 19 199 75 68 80 61 243
-15 334 -58 70 -133 89 -246 61z m131 -105 c72 -63 77 -233 8 -270 -30 -15
-94 -12 -120 6 -59 42 -83 193 -40 248 42 54 102 60 152 16z"/>
        <path d="M3350 5633 c-6 -38 -24 -139 -39 -224 -16 -85 -28 -155 -27 -156 2
-3 341 -63 357 -63 19 0 35 70 19 80 -6 4 -61 14 -123 25 -61 10 -116 21 -120
25 -8 7 6 86 17 97 3 3 48 -2 101 -12 52 -9 102 -14 110 -11 9 3 15 19 15 39
l0 34 -101 17 c-56 9 -105 19 -109 21 -7 4 3 81 12 90 3 3 53 -4 113 -15 145
-27 142 -27 147 18 3 20 4 39 2 41 -4 5 -238 48 -307 56 l-55 7 -12 -69z"/>
        <path d="M3820 5423 c-34 -93 -71 -189 -81 -215 l-19 -48 34 -14 c67 -28 74
-28 81 -4 4 13 16 46 27 74 l19 52 82 -29 c96 -34 104 -34 158 -12 34 13 46
25 65 67 38 82 27 141 -36 186 -22 16 -249 110 -265 110 -1 0 -30 -75 -65
-167z m257 -5 c20 -16 15 -66 -8 -89 -23 -23 -49 -22 -115 6 -40 16 -40 23 -9
98 l15 37 53 -21 c28 -11 58 -25 64 -31z"/>
        <path d="M1784 5493 l-142 -65 39 -92 c60 -144 70 -252 27 -287 -20 -15 -19
-17 22 -98 33 -66 44 -81 58 -76 9 4 30 12 45 17 30 11 30 23 1 80 -13 24 -12
28 3 37 50 26 246 111 257 111 7 0 21 -18 31 -40 21 -45 21 -46 74 -24 l39 15
-36 90 c-28 68 -41 88 -52 83 -46 -19 -45 -20 -121 150 -50 114 -78 166 -89
165 -8 0 -79 -30 -156 -66z m124 -100 c11 -27 36 -85 56 -131 l36 -83 -74 -35
c-41 -19 -77 -34 -80 -34 -3 0 -6 25 -6 54 0 36 -11 84 -31 141 -17 47 -29 88
-27 90 5 5 91 43 99 44 4 1 15 -20 27 -46z"/>
        <path d="M4278 5173 c-69 -98 -128 -183 -131 -190 -5 -7 10 -24 39 -43 l46
-32 150 66 c83 36 153 65 155 63 2 -2 -31 -52 -72 -111 -42 -60 -77 -112 -78
-116 -2 -8 83 -74 87 -68 44 58 256 367 256 373 0 10 -26 30 -63 51 -26 14
-33 12 -179 -51 -83 -35 -153 -64 -154 -62 -1 1 34 53 78 115 88 125 88 124
20 165 l-30 17 -124 -177z"/>
        <path d="M2645 5080 c-433 -37 -846 -230 -1155 -540 -270 -271 -446 -602 -521
-985 -23 -115 -24 -139 -24 -535 0 -464 5 -515 80 -755 200 -641 740 -1133
1392 -1270 173 -36 356 -49 623 -42 380 9 589 56 875 196 551 270 941 818
1021 1435 13 98 15 194 12 496 -4 340 -7 385 -27 484 -131 641 -566 1164
-1160 1395 -245 95 -400 121 -751 126 -146 2 -310 0 -365 -5z m776 -88 c335
-71 623 -215 861 -429 340 -307 541 -694 597 -1153 14 -110 14 -670 0 -780
-41 -336 -155 -622 -354 -889 -266 -356 -659 -602 -1105 -693 -108 -22 -138
-23 -475 -23 -340 0 -366 1 -475 24 -752 155 -1308 726 -1447 1486 -20 110
-30 716 -13 857 49 435 227 804 531 1105 248 245 546 409 877 483 158 35 217
39 567 35 296 -2 352 -5 436 -23z"/>
        <path d="M2829 4571 c-24 -24 -29 -38 -29 -75 l0 -46 -98 0 -97 0 -55 -45
c-159 -131 -331 -179 -679 -190 -102 -4 -198 -11 -212 -16 -27 -11 -49 -46
-49 -78 0 -26 38 -71 61 -71 10 0 19 -4 19 -8 0 -5 -29 -156 -64 -338 -80
-409 -283 -1449 -298 -1526 l-11 -58 -48 0 c-67 0 -64 -17 19 -99 121 -120
248 -165 467 -166 157 0 224 13 332 67 l63 31 98 -46 c208 -97 369 -131 617
-131 287 0 516 63 726 199 l72 46 26 -24 c44 -41 122 -84 206 -113 73 -25 93
-28 230 -28 168 -1 231 11 343 66 73 36 160 110 191 163 l20 35 -52 0 -53 0
-36 188 c-21 103 -103 525 -183 937 -80 413 -149 760 -152 772 -4 18 1 25 20
32 54 21 74 88 38 132 -18 22 -26 24 -212 31 -219 8 -321 20 -428 49 -93 25
-215 88 -277 142 l-48 42 -100 5 c-71 3 -101 9 -102 18 -1 6 -2 26 -3 43 -1
19 -12 41 -30 60 -28 28 -34 29 -116 29 -82 0 -88 -1 -116 -29z m-116 -377
l87 -37 0 -53 c0 -53 0 -54 30 -54 27 0 30 -3 30 -29 0 -45 -21 -185 -28 -193
-4 -4 -29 -1 -54 7 -26 7 -91 19 -144 25 -71 8 -101 15 -110 28 -13 16 -15 16
-31 -4 -14 -15 -39 -23 -104 -32 -155 -22 -318 -90 -437 -183 -35 -28 -68 -47
-72 -42 -4 4 -22 85 -39 178 -17 94 -34 182 -37 198 l-6 27 129 0 c243 0 443
49 602 146 47 29 88 53 91 54 3 0 44 -16 93 -36z m640 -14 c168 -102 332 -144
574 -144 93 -1 163 -5 163 -10 0 -5 -43 -236 -95 -513 -52 -277 -95 -508 -95
-513 0 -6 -4 -10 -10 -10 -5 0 -10 6 -10 14 0 26 -100 124 -152 150 -63 32
-119 33 -207 6 -35 -11 -66 -19 -68 -17 -2 3 -8 18 -12 35 -9 29 -7 32 37 60
60 37 350 280 385 322 15 17 27 36 27 41 0 18 -52 8 -174 -35 -69 -25 -163
-51 -211 -60 -60 -10 -105 -25 -152 -51 l-66 -36 7 33 c4 18 13 79 22 136 12
89 18 109 46 143 17 21 39 39 48 39 22 0 64 45 55 59 -11 18 -90 12 -162 -11
-88 -29 -154 -91 -171 -161 l-12 -47 -54 57 -53 57 -28 150 c-15 83 -30 157
-32 164 -4 9 13 12 66 12 l71 0 1 48 c1 26 1 50 1 53 -1 6 152 76 171 78 5 1
45 -21 90 -49z m-425 -399 c-18 -6 -30 16 -22 40 7 24 7 24 20 -6 8 -19 9 -31
2 -34z m-486 -13 c-4 -18 -7 -62 -7 -98 1 -79 23 -124 96 -188 27 -24 49 -49
49 -55 0 -6 -10 -21 -21 -33 l-21 -23 -37 24 c-33 21 -497 195 -521 195 -58 0
144 125 265 164 48 16 167 44 192 45 9 1 10 -8 5 -31z m308 9 c39 -11 45 -16
42 -38 -2 -13 -6 -66 -9 -117 l-5 -93 -47 43 c-25 24 -74 64 -107 89 -49 38
-65 56 -78 94 l-16 48 88 -6 c48 -3 107 -12 132 -20z m-1059 -491 c-49 -157
-52 -364 -9 -546 19 -83 22 -129 25 -357 l4 -263 -166 0 -165 0 5 23 c3 12 62
312 131 667 68 355 139 719 157 809 l32 164 3 -217 c2 -192 0 -225 -17 -280z
m2654 -321 c86 -440 159 -810 162 -822 l5 -23 -166 0 -166 0 1 833 c0 457 2
828 5 822 2 -5 74 -370 159 -810z m-2526 597 c1 -13 -8 -35 -19 -49 l-20 -26
1 139 1 139 18 -90 c10 -49 19 -101 19 -113z m2291 -627 l0 -815 -155 0 c-173
0 -178 2 -127 62 84 97 171 259 212 396 20 67 21 75 7 89 -26 26 -44 8 -66
-69 -25 -83 -114 -269 -138 -290 -14 -11 -15 -10 -10 7 3 11 11 50 17 87 12
64 13 67 42 70 l30 3 -23 29 c-22 29 -23 29 -7 115 33 193 212 1131 215 1131
2 0 3 -367 3 -815z m-1189 772 l34 -23 0 -93 c0 -106 -2 -103 87 -121 68 -13
75 -26 63 -116 -9 -74 -37 -152 -85 -240 -36 -66 -38 -74 -24 -88 8 -9 19 -16
24 -16 25 0 110 169 136 270 11 44 15 90 12 145 -3 49 0 96 7 120 7 22 18 59
24 82 12 45 60 110 61 83 0 -45 -32 -227 -45 -253 -21 -41 -20 -46 17 -84 37
-38 61 -41 103 -12 62 42 112 62 185 75 107 19 108 19 69 -22 -52 -55 -140
-118 -188 -134 -24 -8 -46 -20 -48 -28 -5 -12 17 -107 38 -159 11 -30 63 -31
151 -3 66 21 100 24 132 11 15 -6 -5 -17 -85 -50 -57 -24 -123 -46 -148 -50
-44 -6 -45 -7 -58 -56 -7 -28 -11 -55 -9 -62 3 -6 32 -26 66 -44 41 -22 83
-57 132 -111 39 -43 69 -80 67 -82 -7 -7 -114 25 -167 49 -30 14 -71 38 -92
55 -21 16 -42 30 -47 30 -5 0 -37 -29 -72 -64 -76 -76 -75 -80 13 -168 65 -65
86 -95 86 -123 0 -21 -143 87 -193 146 l-36 41 -51 -12 c-27 -7 -54 -19 -59
-28 -5 -8 -6 -44 -3 -79 4 -54 0 -79 -29 -163 -18 -55 -36 -100 -40 -100 -3 0
-14 34 -24 76 -13 55 -16 99 -13 165 4 60 2 92 -6 96 -16 11 -137 42 -162 42
-25 1 -42 -34 -69 -139 -17 -65 -37 -105 -58 -113 -18 -7 15 219 38 263 l17
32 -38 39 c-43 44 -57 47 -99 18 -66 -45 -114 -63 -203 -79 l-93 -17 53 54
c60 61 125 105 180 123 21 6 41 16 44 22 8 12 -25 156 -39 176 -14 17 -62 15
-142 -8 -74 -21 -122 -25 -143 -11 -17 10 176 92 235 99 53 6 62 17 65 78 l3
48 -73 40 c-58 32 -87 56 -133 113 -33 40 -53 73 -46 73 56 0 205 -66 253
-112 40 -38 53 -33 122 42 66 72 65 78 -29 175 -58 60 -97 120 -86 131 8 8
198 -150 212 -176 18 -35 25 -36 88 -14 l47 16 0 92 c0 88 13 156 29 156 5 0
23 -10 42 -23z m138 -133 c14 -30 11 -37 -13 -28 -16 6 -23 54 -8 54 5 0 14
-12 21 -26z m-1019 -100 c47 -38 132 -116 190 -174 64 -65 121 -113 148 -124
23 -11 42 -22 42 -26 0 -4 -20 -13 -44 -19 -24 -6 -81 -27 -126 -46 -70 -30
-91 -35 -127 -29 -24 3 -54 15 -67 25 -13 11 -38 19 -54 19 -30 0 -30 1 -42
73 -7 39 -23 125 -36 191 -27 133 -29 167 -12 184 14 14 23 9 128 -74z m-109
-492 l86 -457 -53 -58 c-81 -88 -73 -103 30 -56 l41 18 27 -137 c34 -175 34
-172 0 -172 -61 0 -175 180 -251 393 l-31 89 0 375 0 375 27 49 c14 27 29 47
32 43 3 -3 45 -211 92 -462z m89 31 c69 -100 199 -147 306 -110 85 30 91 30
103 -5 15 -43 14 -45 -14 -52 -13 -3 -95 -65 -181 -137 -86 -72 -157 -129
-159 -127 -7 7 -91 468 -86 468 3 0 17 -17 31 -37z m1786 -24 c17 -11 43 -19
58 -19 14 0 26 -3 26 -7 0 -18 -62 -340 -68 -356 -7 -16 -22 -5 -102 75 -53
51 -107 109 -121 128 -14 19 -54 51 -87 70 -63 36 -75 50 -44 50 9 0 64 20
122 44 115 48 156 51 216 15z m-438 -318 c15 -10 38 -22 52 -26 31 -9 374
-145 379 -150 1 -2 -10 -73 -25 -157 -26 -145 -30 -155 -62 -185 -26 -26 -42
-33 -73 -33 -42 0 -44 -2 -29 -30 9 -16 3 -24 -34 -50 -189 -129 -442 -201
-711 -202 -171 0 -287 17 -434 64 -79 25 -203 78 -220 94 -3 3 9 19 25 37 17
17 38 44 47 60 l17 27 -70 0 c-64 0 -70 2 -75 23 -15 66 -55 285 -55 303 0 15
18 29 73 57 65 34 109 46 220 63 21 3 72 23 114 44 l75 39 -7 -27 c-4 -15 -15
-78 -24 -140 -15 -98 -21 -116 -47 -143 -16 -17 -42 -38 -59 -46 -65 -34 -61
-63 9 -63 99 0 207 51 252 118 12 18 29 66 39 107 15 71 26 85 50 67 6 -4 21
-63 34 -132 30 -160 85 -357 121 -437 47 -103 60 -85 60 86 0 119 9 167 59
301 13 35 20 80 21 123 0 38 4 67 10 67 6 0 10 -4 10 -10 0 -5 44 -44 99 -85
106 -82 121 -106 121 -196 0 -24 4 -51 10 -59 7 -12 12 -12 29 4 34 31 63 123
64 201 0 86 -15 120 -91 197 l-56 58 24 25 c28 30 25 30 58 6z m-1465 -494
c21 -26 37 -49 37 -52 0 -3 -36 -5 -80 -5 l-80 0 0 143 0 142 44 -90 c23 -49
59 -111 79 -138z"/>
        <path d="M4725 4819 c-88 -77 -165 -146 -172 -152 -10 -9 15 -43 110 -153
l123 -142 34 28 34 28 -87 98 -86 99 34 33 c19 17 39 32 43 32 7 0 53 -49 144
-154 5 -6 20 2 38 19 l29 28 -35 41 c-19 23 -51 60 -71 84 l-36 43 29 30 c15
16 33 28 39 27 6 -2 46 -42 89 -90 43 -49 81 -88 84 -88 4 1 20 11 36 25 l29
23 -85 99 c-47 54 -103 117 -124 140 l-39 42 -160 -140z"/>
        <path d="M1284 4866 l-69 -65 27 -27 27 -27 48 40 c26 23 59 53 72 67 l24 26
-23 25 c-13 14 -27 25 -31 25 -4 0 -38 -29 -75 -64z"/>
        <path d="M657 4470 l-29 -51 39 -46 c190 -229 262 -319 263 -328 0 -10 -253
-115 -276 -115 -6 0 -42 49 -80 110 -38 60 -72 109 -75 110 -3 0 -13 -26 -22
-57 l-16 -58 66 -97 c37 -54 65 -100 62 -102 -2 -2 -40 7 -83 20 -44 12 -83
21 -87 19 -7 -5 -32 -96 -27 -100 4 -4 421 -125 430 -125 7 0 42 100 37 104
-2 1 -48 15 -102 31 -54 15 -94 31 -90 35 4 5 60 27 125 50 l116 42 16 64 c9
35 30 87 47 114 l31 50 -31 37 -30 37 19 33 c69 115 58 105 109 98 l47 -6 27
49 27 50 -27 6 c-16 3 -113 20 -218 36 -104 17 -201 33 -215 36 -22 4 -29 -3
-53 -46z m209 -81 c32 -7 63 -15 68 -19 4 -5 -4 -29 -19 -55 l-28 -46 -46 52
c-77 88 -77 87 25 68z"/>
        <path d="M5085 4183 c-16 -8 -31 -17 -33 -18 -5 -4 76 -175 83 -175 8 0 65 30
65 34 0 6 -80 176 -82 176 -2 -1 -16 -8 -33 -17z"/>
        <path d="M5375 3731 c-58 -36 -70 -57 -70 -130 0 -36 3 -87 7 -112 l7 -46 -81
-11 c-45 -7 -83 -14 -85 -16 -2 -2 -1 -27 3 -55 6 -43 10 -51 28 -51 34 0 437
58 443 64 7 7 -25 229 -40 280 -6 21 -24 51 -40 67 -25 25 -36 29 -85 29 -38
0 -67 -6 -87 -19z m119 -120 c14 -15 41 -129 33 -138 -2 -1 -28 -5 -59 -9 -64
-7 -67 -4 -71 86 -2 41 2 54 17 66 27 19 60 18 80 -5z"/>
        <path d="M349 3590 c-1 -27 -2 -55 -3 -61 -1 -5 45 -31 102 -56 56 -26 99 -50
95 -54 -5 -3 -52 -21 -105 -39 -54 -17 -101 -36 -104 -41 -3 -6 -8 -37 -11
-70 l-6 -60 39 16 c21 9 101 42 178 73 l138 56 19 -23 c14 -17 18 -33 13 -56
-6 -32 -5 -33 36 -37 23 -2 43 -1 46 3 2 4 7 34 10 66 10 95 -5 109 -241 231
-110 56 -201 102 -202 102 -2 0 -4 -22 -4 -50z"/>
        <path d="M5157 3206 c-3 -8 -4 -22 -2 -32 2 -11 4 -97 4 -191 l1 -173 40 0 39
0 3 73 3 72 193 3 192 2 0 55 0 55 -192 2 -193 3 -3 73 -3 72 -38 0 c-24 0
-41 -5 -44 -14z"/>
        <path d="M555 3075 l-220 -83 -3 -58 -3 -59 223 -83 c123 -45 227 -82 231 -82
4 0 7 25 5 57 -3 54 -4 57 -37 68 -32 11 -49 34 -45 63 1 6 2 37 3 67 l1 54
40 12 40 12 0 59 c0 32 -3 58 -7 57 -5 0 -107 -38 -228 -84z m75 -140 c0 -30
-4 -55 -8 -55 -14 0 -137 42 -145 50 -7 6 116 56 146 59 4 1 7 -24 7 -54z"/>
        <path d="M5235 2714 c-65 -34 -97 -86 -110 -180 -20 -151 91 -255 275 -257
106 -1 168 37 205 128 25 59 25 172 0 214 -22 38 -78 86 -112 95 -20 6 -22 2
-29 -51 -5 -41 -3 -58 5 -61 7 -2 24 -14 39 -27 49 -42 30 -128 -34 -159 -66
-31 -187 -11 -234 39 -44 47 -24 135 36 157 31 11 44 39 44 101 0 22 -43 23
-85 1z"/>
        <path d="M543 2611 c-111 -20 -204 -39 -207 -41 -2 -3 1 -29 6 -58 8 -41 14
-51 27 -48 40 12 146 25 152 18 13 -15 29 -146 17 -153 -5 -4 -44 -12 -85 -19
l-75 -12 7 -36 c12 -69 15 -74 43 -70 15 3 116 20 225 39 l199 34 -7 49 c-3
28 -8 53 -10 57 -3 3 -47 -1 -100 -10 -86 -16 -95 -16 -99 -2 -9 29 -27 143
-24 146 2 2 43 10 92 19 49 9 91 18 93 20 3 3 2 28 -2 55 -6 44 -10 51 -28 50
-12 -1 -113 -18 -224 -38z"/>
        <path d="M5136 2196 c-81 -30 -142 -123 -153 -231 -12 -116 83 -218 228 -245
78 -15 145 3 195 54 71 71 106 215 70 284 -23 43 -87 99 -140 123 -62 27 -149
34 -200 15z m131 -122 c64 -22 97 -47 116 -87 20 -42 9 -92 -28 -127 -51 -48
-191 -18 -251 53 -22 26 -25 38 -21 74 10 91 78 123 184 87z"/>
        <path d="M664 1942 l-32 -17 39 -84 c22 -47 41 -86 43 -88 1 -2 19 4 39 12
l36 15 -39 87 c-21 48 -42 89 -47 90 -4 1 -22 -6 -39 -15z"/>
        <path d="M4874 1728 c-22 -29 -44 -58 -47 -65 -4 -7 31 -71 82 -150 50 -75 89
-139 87 -140 -2 -2 -73 21 -159 51 l-156 55 -50 -64 -51 -64 186 -146 c102
-80 189 -143 193 -140 20 11 63 87 55 94 -5 4 -60 47 -121 95 -62 48 -113 89
-113 91 0 5 58 -13 201 -63 l116 -40 25 32 26 33 -89 137 c-50 76 -88 140 -86
143 3 2 20 -9 38 -25 19 -15 73 -58 121 -95 l86 -67 35 42 c20 23 33 46 31 50
-5 8 -362 288 -367 288 -1 0 -21 -24 -43 -52z"/>
        <path d="M977 1469 l-177 -150 36 -45 c32 -39 39 -43 53 -31 9 7 44 37 79 67
36 30 66 49 70 44 5 -5 30 -35 56 -66 l47 -56 -75 -64 c-42 -34 -76 -66 -76
-69 0 -4 15 -25 34 -48 l34 -41 169 141 c92 78 174 146 181 153 10 10 6 21
-25 56 l-38 42 -68 -57 c-37 -32 -69 -56 -70 -54 -2 2 -26 32 -55 66 l-53 62
63 52 c35 28 64 56 66 60 4 9 -58 89 -67 88 -3 0 -86 -68 -184 -150z"/>
        <path d="M4464 1262 l-42 -37 19 -140 c10 -77 21 -152 23 -167 3 -16 2 -28 -2
-28 -4 1 -45 50 -92 110 -47 60 -88 109 -91 110 -4 0 -25 -17 -47 -37 l-41
-38 147 -182 147 -181 25 19 c14 10 35 26 46 36 l22 18 -24 170 c-12 93 -21
171 -20 173 2 2 43 -47 92 -108 48 -60 92 -110 98 -110 6 1 28 15 49 33 l37
32 -144 180 c-80 99 -148 181 -153 182 -4 1 -27 -14 -49 -35z"/>
        <path d="M1345 1078 c-134 -185 -137 -190 -119 -208 40 -38 287 -209 295 -205
4 3 17 19 29 35 l20 28 -107 78 c-60 43 -110 79 -112 80 -5 4 59 84 68 84 4 0
47 -29 96 -65 l88 -64 24 31 c13 18 23 34 23 37 0 3 -28 25 -63 49 -34 23 -75
52 -91 65 l-29 23 24 37 c13 20 29 37 34 37 6 0 55 -34 110 -75 l100 -74 18
22 c41 51 45 46 -118 164 l-153 110 -137 -189z"/>
        <path d="M1854 969 c-33 -9 -98 -74 -90 -88 3 -4 26 -16 51 -26 46 -17 47 -17
66 4 54 58 186 -11 150 -78 -16 -29 -42 -33 -91 -16 -23 8 -44 15 -47 15 -5 0
-35 -71 -31 -74 2 -2 18 -8 36 -16 47 -18 82 -48 82 -70 0 -10 -8 -28 -18 -41
-49 -59 -188 12 -179 92 2 18 -7 26 -46 42 -26 11 -51 17 -54 13 -4 -4 -7 -30
-7 -59 -1 -86 55 -143 183 -187 105 -35 176 -24 211 32 29 48 26 109 -6 147
l-26 31 32 0 c48 0 90 47 90 101 0 80 -61 135 -189 173 -61 18 -72 18 -117 5z"/>
        <path d="M3955 955 c-143 -58 -182 -183 -109 -346 46 -103 119 -147 221 -135
104 12 190 74 214 155 13 45 4 115 -14 108 -85 -34 -95 -40 -90 -52 2 -8 0
-30 -7 -50 -12 -38 -51 -65 -93 -65 -66 0 -137 95 -145 195 -4 43 0 56 19 78
43 49 98 51 159 6 11 -8 27 -5 63 10 l48 21 -22 31 c-27 38 -91 69 -144 69
-22 0 -67 -11 -100 -25z"/>
        <path d="M3599 828 l-47 -10 -58 -154 c-32 -86 -61 -157 -64 -159 -4 -2 -18
55 -31 126 -13 72 -27 135 -30 140 -6 10 -78 2 -99 -11 -10 -6 -3 -58 31 -235
l44 -227 50 7 c27 3 55 12 61 18 7 7 36 77 65 157 29 80 56 149 59 153 4 4 20
-57 36 -136 l29 -143 55 11 c30 6 54 15 54 20 -12 91 -90 455 -98 454 -6 -1
-32 -6 -57 -11z"/>
        <path d="M2377 748 c-25 -40 -84 -136 -131 -213 -62 -99 -83 -141 -74 -146 7
-4 34 -10 59 -14 45 -7 46 -6 70 33 l24 39 80 -16 80 -16 9 -47 c8 -41 13 -48
38 -53 15 -3 42 -8 59 -11 29 -6 31 -4 26 17 -3 13 -22 126 -43 251 l-38 226
-35 7 c-20 3 -46 9 -57 11 -18 5 -29 -7 -67 -68z m87 -140 c4 -35 10 -74 13
-87 6 -23 5 -24 -42 -17 -77 12 -77 10 -31 92 22 41 44 74 47 74 4 0 10 -28
13 -62z"/>
        <path d="M2760 546 l0 -236 138 0 c156 0 203 10 244 50 39 39 40 114 3 159
-14 16 -35 33 -45 36 -18 6 -17 10 16 41 34 32 36 37 31 80 -3 32 -13 55 -31
73 -26 26 -28 26 -191 29 l-165 3 0 -235z m254 138 c19 -18 21 -55 4 -72 -7
-7 -40 -12 -80 -12 l-68 0 0 43 c0 24 3 47 7 50 14 14 121 7 137 -9z m14 -190
c27 -18 29 -55 4 -77 -24 -22 -127 -34 -147 -17 -15 13 -21 90 -8 103 13 14
128 7 151 -9z"/>
    </g>
</svg>
